<svg xmlns="http://www.w3.org/2000/svg" viewBox="0 0 1255 1255" width="16" height="16">
   <path fill="#fdf289"
          d="M145.447 762.554c-14.646-56-20.134-112.501-16.187-169.823 4.875-70.794 22.715-138.122 55.095-201.429 45.615-89.183 110.932-160.202 197.504-210.693 102.607-59.844 212.977-80.142 330.226-60.018 89.984 15.45 169.323 54.17 238.107 113.936 87.513 76.076 143.246 171.437 167.216 284.779 19.065 90.149 14.673 179.612-13.232 267.575-25.216 79.487-66.918 149.44-126.022 208.204-99.577 99.004-219.775 149.719-360.661 147.288-100.95-1.742-192.562-33.536-274.592-92.515-65.969-47.431-117.389-107.538-155.263-179.299-18.083-34.263-32.154-70.135-42.191-108.004zM294.978 356.383c-23.606 34.369-43.611 70.66-59.345 110.292h192.961v470.526h111.186V467.036h114.933c-1.409 1.859-2.414 3.113-3.343 4.422-8.857 12.478-18.564 24.45-26.402 37.54-35.241 58.851-47.156 122.467-36.455 190.131 7.249 45.843 24.669 87.695 52.5 124.91 46.625 62.346 108.253 100.648 185.603 110.942 27.082 3.604 54.87 1.979 82.34 2.542 6.917.142 14.746 1.429 20.529-1.282 6.043-2.833 10.265-9.726 15.041-15.06 43.357-48.426 74.85-103.778 96.039-165.097 1.008-2.918 1.563-6.147 1.57-9.233.103-45.329.076-90.658.081-135.987 0-2.45 0-4.9 0-7.861h-235.929c-3.128-.004-4.695 1.033-6.129 3.709-17.542 32.729-35.204 65.394-52.815 98.086-.506.939-.794 1.995-1.442 3.661h192.714v133.806c-1.249.096-2.069.214-2.889.214-28.83-.002-57.684.736-86.484-.188-52.184-1.674-95.401-23.414-128.905-62.949-39.334-46.414-52.159-100.746-42.33-160.275 14.295-86.578 90.057-155.034 180.646-152.53 48.626 1.344 97.318.287 145.98.312 3.253.002 6.506 0 10.365 0-1.116-2.911-1.786-4.763-2.529-6.584-14.021-34.373-32.237-66.451-53.183-97.026-1.929-2.815-4.185-5.406-7.215-8.242-4.315-.108-8.629-.308-12.944-.31-60.309-.033-120.618-.046-180.927-.05-152.438-.012-304.877-.022-457.315.036-1.801.001-3.601.925-5.907 1.775z"/>
    <path fill="#635a03"
          d="M952.998 355.072c2.104 2.695 4.36 5.287 6.289 8.102 20.946 30.575 39.162 62.653 53.183 97.026.743 1.822 1.413 3.673 2.529 6.584-3.859 0-7.112.001-10.365 0-48.662-.026-97.354 1.032-145.98-.312-90.589-2.504-166.351 65.952-180.646 152.53-9.829 59.529 2.996 113.861 42.33 160.275 33.504 39.535 76.721 61.275 128.905 62.949 28.8.924 57.654.186 86.484.188.82 0 1.64-.118 2.889-.214V708.397H745.903c.648-1.666.936-2.722 1.442-3.661 17.611-32.692 35.273-65.357 52.815-98.086 1.434-2.676 3.001-3.713 6.129-3.709h235.929c0 2.961 0 5.411-.001 7.861-.004 45.329.022 90.658-.081 135.987-.007 3.086-.562 6.315-1.57 9.233-21.189 61.319-52.682 116.671-96.039 165.097-4.776 5.334-8.998 12.227-15.041 15.06-5.783 2.711-13.612 1.424-20.529 1.282-27.47-.563-55.258 1.062-82.34-2.542-77.35-10.294-138.978-48.596-185.603-110.942-27.831-37.215-45.251-79.067-52.5-124.91-10.701-67.664 1.214-131.28 36.455-190.131 7.838-13.09 17.545-25.062 26.402-37.54.929-1.309 1.934-2.563 3.343-4.422H539.78v470.165H428.594V466.675H235.633c15.734-39.632 35.739-75.923 60.109-110.472 217.002-.188 433.241-.192 649.479-.242 2.592 0 5.184-.579 7.777-.889z"/>
</svg>